<svg xmlns="http://www.w3.org/2000/svg" xml:space="preserve" style="fill-rule:evenodd;clip-rule:evenodd" viewBox="-0.9 -0.9 513.7 513.7"><path d="M304 592c126 0 196 0 242-46s46-116 46-242 0-196-46-242-116-46-242-46-196 0-242 46-46 116-46 242 0 196 46 242 116 46 242 46Z" style="fill:#252525;fill-rule:nonzero;stroke:#fff;stroke-width:17.81px" transform="matrix(.861 0 0 .861 -6 -6)"/><path d="M41 87a32 32 0 0 1 46-46l192 192c12 13 12 33 0 46L87 471a32 32 0 0 1-46-46l170-169L41 87Zm247 329h288a32 32 0 1 1 0 64H288a32 32 0 1 1 0-64Z" style="fill:#fff;fill-rule:nonzero" transform="matrix(.146 0 0 .146 68 73)"/><path d="M272 160a80 80 0 1 1-160 0 80 80 0 0 1 160 0Zm-80-32a32 32 0 1 0 0 64 32 32 0 0 0 0-64ZM7 315l-6-36c72 26 160 41 255 41s183-15 254-41c0 12-2 24-5 36-72 23-158 37-249 37S79 338 7 315Z" style="fill:#ffddbd;fill-rule:nonzero" transform="matrix(.442 0 0 .442 143 203)"/><path d="M256 320c-95 0-183-15-255-41l-1-23A256 256 0 0 1 416 56v40h-48v64h80v64h62a261 261 0 0 1 0 55c-71 26-159 41-254 41ZM192 80a80 80 0 1 0 0 160 80 80 0 0 0 0-160Zm64 272c44 0 87-3 128-9v41h64v41A255 255 0 0 1 7 315c72 23 158 37 249 37Z" style="fill:#7a6f64;fill-rule:nonzero" transform="matrix(.442 0 0 .442 143 203)"/></svg>